<?xml version="1.0" encoding="UTF-8"?>
<svg width="130px" height="110px" viewBox="0 0 130 110" version="1.1" xmlns="http://www.w3.org/2000/svg" xmlns:xlink="http://www.w3.org/1999/xlink">
    <!-- Generator: Sketch 46.2 (44496) - http://www.bohemiancoding.com/sketch -->
    <title>Artboard</title>
    <desc>Created with Sketch.</desc>
    <defs></defs>
    <g id="Placeholder" stroke="none" stroke-width="1" fill="none" fill-rule="evenodd">
        <g id="Artboard">
            <g id="Illustration-with-Text" transform="translate(3.000000, 0.000000)">
                <text id="Kein-Bild-hinterlegt" font-family="OpenSans-Light, Open Sans, DejaVu Sans, Arial, Helvetica, sans-serif" font-size="14" font-weight="300" fill="#B9B9B9">
                    <tspan x="2.84179688" y="106">No Image</tspan>
                </text>
                <g id="Illustration" transform="translate(7.000000, 0.000000)">
                    <path d="M1,81 L65.3125,81 L109,81 L109,81 C109.552285,81 110,81.4477153 110,82 L110,82 L110,82 C110,82.5522847 109.552285,83 109,83 L1,83 L1,83 C0.44771525,83 6.76353751e-17,82.5522847 0,82 L0,82 L0,82 C-6.76353751e-17,81.4477153 0.44771525,81 1,81 Z" id="Ground" fill="#CACACA"></path>
                    <g id="House" transform="translate(16.000000, 0.000000)">
                        <g id="Walls" transform="translate(4.000000, 21.000000)" fill="#CACACA">
                            <path d="M63.520316,9.55024234 L69,14.931388 L69,15.0299263 L63.520316,9.55024234 Z M69,20.2087587 L69,62 L2.4428376e-14,62 L2.16717933e-14,20.2209539 C0.401162794,20.15621 0.786374171,19.9684598 1.09611344,19.6587206 L2,18.754834 L2,60 L67,60 L67,18.6867806 L67.97194,19.6587206 C68.2641221,19.9509027 68.6234628,20.1345334 69,20.2087587 Z M14.8663888,0.231590974 L2.13162821e-14,14.8327893 L2.13337793e-14,15.0979797 L14.8663888,0.231590974 Z" id="Combined-Shape"></path>
                        </g>
                        <path d="M40.080842,4.31157641 L40.1223652,4.27005318 L38.5966683,2.74435628 L2.98317127,38.3578533 C2.56031953,38.7807051 2.56500411,39.4590982 2.98631368,39.8804078 C3.41056053,40.3046547 4.0892941,40.3031243 4.50886816,39.8835502 L38.5551451,5.8372733 L72.9322939,40.2144221 C73.3518679,40.6339962 74.0306015,40.6355265 74.4548483,40.2112797 C74.8761579,39.7899701 74.8808425,39.1115769 74.4579908,38.6887252 L40.080842,4.31157641 Z M38.6012631,0.123296205 L38.7246239,-6.46688023e-05 L76.519065,37.7943764 C77.3137788,38.5890901 77.3164626,39.8830113 76.5200517,40.6794223 L75.5897941,41.6096798 C74.7948113,42.4046626 73.5017041,42.4056491 72.7047482,41.6086932 L38.6503481,7.55429309 L4.54686298,41.6577782 C3.7499071,42.4547341 2.45679986,42.4537477 1.66181708,41.6587649 L0.731559547,40.7285073 C-0.0648514262,39.9320964 -0.0621675595,38.6381752 0.732546187,37.8434614 L38.5269873,0.0490203834 L38.6012631,0.123296205 Z" id="Combined-Shape" fill="#CACACA"></path>
                        <g id="Fence" transform="translate(35.000000, 69.000000)" fill="#CACACA">
                            <g id="Fence-piece">
                                <g transform="translate(0.614204, 0.271891)">
                                    <path d="M3.37552743,8.44692848 L3.37552743,11.8139454 L0,11.8139454 L0,1.02774351 C0,0.460136441 0.455238648,6.03961325e-14 1.01276953,6.03961325e-14 L2.3627579,6.03961325e-14 C2.92209506,6.03961325e-14 3.37552743,0.448694587 3.37552743,1.02774351 L3.37552743,5.2793303 L6.31834992,5.2793303 L6.31834992,6.33519636 L3.37552743,6.33519636 L3.37552743,7.39106242 L6.31834992,7.39106242 L6.31834992,8.44692848 L3.37552743,8.44692848 Z M0.843881857,0.843853242 L0.843881857,11.6019326 L2.53164557,11.6019326 L2.53164557,0.843853242 L0.843881857,0.843853242 Z" id="Top-step"></path>
                                </g>
                            </g>
                            <g transform="translate(6.000000, 0.000000)" id="Fence-piece">
                                <g transform="translate(0.614204, 0.271891)">
                                    <path d="M3.37552743,8.44692848 L3.37552743,11.8139454 L0,11.8139454 L0,1.02774351 C0,0.460136441 0.455238648,6.03961325e-14 1.01276953,6.03961325e-14 L2.3627579,6.03961325e-14 C2.92209506,6.03961325e-14 3.37552743,0.448694587 3.37552743,1.02774351 L3.37552743,5.2793303 L6.31834992,5.2793303 L6.31834992,6.33519636 L3.37552743,6.33519636 L3.37552743,7.39106242 L6.31834992,7.39106242 L6.31834992,8.44692848 L3.37552743,8.44692848 Z M0.843881857,0.843853242 L0.843881857,11.6019326 L2.53164557,11.6019326 L2.53164557,0.843853242 L0.843881857,0.843853242 Z" id="Top-step"></path>
                                </g>
                            </g>
                            <g transform="translate(12.000000, 0.000000)" id="Fence-piece">
                                <g transform="translate(0.614204, 0.271891)">
                                    <path d="M3.37552743,8.44692848 L3.37552743,11.8139454 L0,11.8139454 L0,1.02774351 C0,0.460136441 0.455238648,6.03961325e-14 1.01276953,6.03961325e-14 L2.3627579,6.03961325e-14 C2.92209506,6.03961325e-14 3.37552743,0.448694587 3.37552743,1.02774351 L3.37552743,5.2793303 L6.31834992,5.2793303 L6.31834992,6.33519636 L3.37552743,6.33519636 L3.37552743,7.39106242 L6.31834992,7.39106242 L6.31834992,8.44692848 L3.37552743,8.44692848 Z M0.843881857,0.843853242 L0.843881857,11.6019326 L2.53164557,11.6019326 L2.53164557,0.843853242 L0.843881857,0.843853242 Z" id="Top-step"></path>
                                </g>
                            </g>
                            <g transform="translate(18.000000, 0.000000)" id="Fence-piece">
                                <g transform="translate(0.614204, 0.271891)">
                                    <path d="M3.37552743,8.44692848 L3.37552743,11.8139454 L0,11.8139454 L0,1.02774351 C0,0.460136441 0.455238648,6.03961325e-14 1.01276953,6.03961325e-14 L2.3627579,6.03961325e-14 C2.92209506,6.03961325e-14 3.37552743,0.448694587 3.37552743,1.02774351 L3.37552743,5.2793303 L6.31834992,5.2793303 L6.31834992,6.33519636 L3.37552743,6.33519636 L3.37552743,7.39106242 L6.31834992,7.39106242 L6.31834992,8.44692848 L3.37552743,8.44692848 Z M0.843881857,0.843853242 L0.843881857,11.6019326 L2.53164557,11.6019326 L2.53164557,0.843853242 L0.843881857,0.843853242 Z" id="Top-step"></path>
                                </g>
                            </g>
                            <g transform="translate(24.000000, 0.000000)" id="Fence-piece">
                                <g transform="translate(0.614204, 0.271891)">
                                    <path d="M3.37552743,8.44692848 L3.37552743,11.8139454 L0,11.8139454 L0,1.02774351 C0,0.460136441 0.455238648,6.03961325e-14 1.01276953,6.03961325e-14 L2.3627579,6.03961325e-14 C2.92209506,6.03961325e-14 3.37552743,0.448694587 3.37552743,1.02774351 L3.37552743,5.2793303 L6.31834992,5.2793303 L6.31834992,6.33519636 L3.37552743,6.33519636 L3.37552743,7.39106242 L6.31834992,7.39106242 L6.31834992,8.44692848 L3.37552743,8.44692848 Z M0.843881857,0.843853242 L0.843881857,11.6019326 L2.53164557,11.6019326 L2.53164557,0.843853242 L0.843881857,0.843853242 Z" id="Top-step"></path>
                                </g>
                            </g>
                            <g transform="translate(30.000000, 0.000000)" id="Fence-piece">
                                <g transform="translate(0.614204, 0.271891)">
                                    <path d="M3.37552743,8.44692848 L3.37552743,11.8139454 L0,11.8139454 L0,1.02774351 C0,0.460136441 0.455238648,6.03961325e-14 1.01276953,6.03961325e-14 L2.3627579,6.03961325e-14 C2.92209506,6.03961325e-14 3.37552743,0.448694587 3.37552743,1.02774351 L3.37552743,5.2793303 L6.31834992,5.2793303 L6.31834992,6.33519636 L3.37552743,6.33519636 L3.37552743,7.39106242 L6.31834992,7.39106242 L6.31834992,8.44692848 L3.37552743,8.44692848 Z M0.843881857,0.843853242 L0.843881857,11.6019326 L2.53164557,11.6019326 L2.53164557,0.843853242 L0.843881857,0.843853242 Z" id="Top-step"></path>
                                </g>
                            </g>
                        </g>
                        <g id="Steps" transform="translate(9.000000, 74.000000)" fill="#CACACA">
                            <path d="M1.6817167,3.22143519 L23.9020581,3.22143519 C24.4543428,3.22143519 24.9020581,3.66915044 24.9020581,4.22143519 L24.9020581,8.22143519 L0.681716702,8.22143519 L0.681716702,4.22143519 L0.681716702,4.22143519 C0.681716702,3.66915044 1.12943195,3.22143519 1.6817167,3.22143519 L1.6817167,3.22143519 Z M1.73477502,4.27730125 L1.73477502,7.27730125 L23.8489997,7.27730125 L23.8489997,4.27730125 L1.73477502,4.27730125 Z" id="Bottom-step"></path>
                            <path d="M3.78783334,0.0538370055 L21.7959414,0.0538370055 C22.3482262,0.0538370055 22.7959414,0.501552256 22.7959414,1.05383701 L22.7959414,4.27730125 L2.78783334,4.27730125 L2.78783334,1.05383701 L2.78783334,1.05383701 C2.78783334,0.501552256 3.23554859,0.0538370055 3.78783334,0.0538370055 L3.78783334,0.0538370055 Z M3.84089166,1.10970307 L3.84089166,3.22143519 L21.7428831,3.22143519 L21.7428831,1.10970307 L3.84089166,1.10970307 Z" id="Top-step"></path>
                        </g>
                        <g id="Door" transform="translate(12.000000, 48.000000)" fill="#CACACA">
                            <path d="M2.66508947,0.245550247 L16.5670809,0.245550247 C17.6716504,0.245550247 18.5670809,1.14098075 18.5670809,2.24555025 L18.5670809,26.6422018 L0.665089465,26.6422018 L0.665089465,2.24555025 L0.665089465,2.24555025 C0.665089465,1.14098075 1.56051997,0.245550247 2.66508947,0.245550247 L2.66508947,0.245550247 Z M1.71814779,2.31399083 L1.71814779,25.5863357 L17.5140226,25.5863357 L17.5140226,2.31399083 C17.5140226,1.76485467 17.0608756,1.30141631 16.5018905,1.30141631 L2.73027989,1.30141631 C2.17385248,1.30141631 1.71814779,1.75476136 1.71814779,2.31399083 Z" id="Door-frame"></path>
                            <path d="M3.77120611,2.35728237 L15.4609643,2.35728237 C16.013249,2.35728237 16.4609643,2.80499762 16.4609643,3.35728237 L16.4609643,9.80421085 C16.4609643,10.3564956 16.013249,10.8042109 15.4609643,10.8042109 L3.77120611,10.8042109 L3.77120611,10.8042109 C3.21892136,10.8042109 2.77120611,10.3564956 2.77120611,9.80421085 L2.77120611,3.35728237 L2.77120611,3.35728237 C2.77120611,2.80499762 3.21892136,2.35728237 3.77120611,2.35728237 L3.77120611,2.35728237 Z M3.82426443,3.41314843 L3.82426443,9.74834479 L15.4079059,9.74834479 L15.4079059,3.41314843 L3.82426443,3.41314843 Z" id="Top-panel"></path>
                            <path d="M3.77120611,15.0276751 L15.4609643,15.0276751 C16.013249,15.0276751 16.4609643,15.4753903 16.4609643,16.0276751 L16.4609643,23.5304696 C16.4609643,24.0827544 16.013249,24.5304696 15.4609643,24.5304696 L3.77120611,24.5304696 C3.21892136,24.5304696 2.77120611,24.0827544 2.77120611,23.5304696 L2.77120611,16.0276751 L2.77120611,16.0276751 C2.77120611,15.4753903 3.21892136,15.0276751 3.77120611,15.0276751 L3.77120611,15.0276751 Z M3.82426443,16.0835412 L3.82426443,23.4746036 L15.4079059,23.4746036 L15.4079059,16.0835412 L3.82426443,16.0835412 Z" id="Bottom-panel"></path>
                            <rect id="Handle" x="2.77120611" y="11.8600769" width="2.16876243" height="2.11173212" rx="1.05586606"></rect>
                        </g>
                        <g id="Centre-window" transform="translate(35.000000, 48.000000)" fill="#CACACA">
                            <path d="M2.73053951,0.0491100493 L28.2161725,0.0491100493 C29.320742,0.0491100493 30.2161725,0.94454055 30.2161725,2.04911005 L30.2161725,12.8312349 C30.2161725,13.9358044 29.320742,14.8312349 28.2161725,14.8312349 L2.73053951,14.8312349 L2.73053951,14.8312349 C1.62597001,14.8312349 0.730539506,13.9358044 0.730539506,12.8312349 L0.730539506,2.04911005 L0.730539506,2.04911005 C0.730539506,0.94454055 1.62597001,0.0491100493 2.73053951,0.0491100493 L2.73053951,0.0491100493 Z M2.73053951,1.04911005 L2.73053951,1.04911005 C2.17825476,1.04911005 1.73053951,1.4968253 1.73053951,2.04911005 L1.73053951,12.7195028 C1.73053951,13.2717875 2.17825476,13.7195028 2.73053951,13.7195028 L2.73053951,13.7195028 L28.1100558,13.7195028 C28.6623406,13.7195028 29.1100558,13.2717875 29.1100558,12.7195028 L29.1100558,2.04911005 C29.1100558,1.4968253 28.6623406,1.04911005 28.1100558,1.04911005 L2.73053951,1.04911005 Z M14.7305395,1.04911005 L15.7305395,1.04911005 L15.7305395,13.7191101 L14.7305395,13.7191101 L14.7305395,1.04911005 Z" id="Window"></path>
                        </g>
                        <g id="Group-5" transform="translate(28.000000, 26.000000)" stroke="#CACACA" stroke-linecap="square">
                            <path d="M10.5,0 C7.7754451,4.54747351e-13 6.00591052,1.01746609 4.66524037,2.05191084 C1.1891292,4.73403585 3.71463927e-14,7.1091653 0,7.5 C-3.70632886e-14,7.8908347 0.0142269159,8.81681636 1.61988996,9 L10.5,9" id="Line"></path>
                            <path d="M21.5,0 C18.7754451,4.54747351e-13 17.0059105,1.01746609 15.6652404,2.05191084 C12.1891292,4.73403585 11,7.1091653 11,7.5 C11,7.8908347 11.0142269,8.81681636 12.61989,9 L21.5,9" id="Line" transform="translate(16.250000, 4.500000) scale(-1, 1) translate(-16.250000, -4.500000) "></path>
                        </g>
                    </g>
                </g>
            </g>
        </g>
    </g>
</svg>
